<?xml version="1.0" encoding="utf-8"?>
<!-- Generator: Adobe Illustrator 25.0.0, SVG Export Plug-In . SVG Version: 6.00 Build 0)  -->
<svg version="1.1" id="Слой_1" xmlns="http://www.w3.org/2000/svg" xmlns:xlink="http://www.w3.org/1999/xlink" x="0px" y="0px"
	 viewBox="0 0 32 32" style="enable-background:new 0 0 32 32;" xml:space="preserve">
<style type="text/css">
	.st0{opacity:0.65;fill:#FFB80F;stroke:#FF7F2D;stroke-miterlimit:10;}
	.st1{fill:#FFB80F;stroke:#FF7F2D;stroke-miterlimit:10;}
	.st2{fill:#F39200;stroke:#E94E1B;stroke-miterlimit:10;}
</style>
<path class="st0" d="M6.59,11.48C6.64,11.25,6.95,3.2,6.95,3.2l5.95,7.78l2.55-8.7L17.51,12L28,2.3l-4.6,10.4
	c0,0,7.47,3.1,7.16,2.89c-0.31-0.22-10.23,0.82-10.23,0.82s7.09,8.46,6.66,8.49c-0.44,0.03-8.04-2.94-8.04-2.94
	s-0.91,7.56-1.08,7.28c-0.17-0.28-3.18-8.55-3.18-8.55l-2.91,9.03l-1.45-5.99l-4.79,5.61l1.15-7.61l-5.27-2.62l6.61-2.2L2.06,9.65
	L6.59,11.48z"/>
<path class="st1" d="M13.21,24.33c-0.23-0.02-8.24,0.86-8.24,0.86l6.81-7.03L2.8,16.93l9.31-3.48L0.97,4.51l10.96,3.01
	c0,0,1.97-7.85,1.8-7.51S16.05,10,16.05,10s7.31-8.27,7.41-7.84s-1.72,8.39-1.72,8.39s7.61-0.22,7.36-0.01s-7.99,4.41-7.99,4.41
	l9.36,1.54l-5.71,2.32l6.25,3.91l-7.7-0.01l-1.81,5.6l-3.16-6.22l-6.3,6.99L13.21,24.33z"/>
<path class="st2" d="M10.28,12.37c0.04-0.13,0.62-5.04,0.62-5.04l3.25,5.04l1.98-5.19l0.79,6.04l6.88-5.41l-3.31,6.13
	c0,0,4.41,2.26,4.24,2.11c-0.18-0.15-6.29,0.01-6.29,0.01s3.92,5.51,3.66,5.51s-4.77-2.18-4.77-2.18s-0.92,4.57-1.01,4.4
	c-0.09-0.18-1.53-5.38-1.53-5.38l-2.22,5.38l-0.59-3.73l-3.2,3.19l1.07-4.59l-3.09-1.85l4.15-1.03l-3.3-4.73L10.28,12.37z"/>
</svg>
